<svg xmlns="http://www.w3.org/2000/svg" width="88.031" height="81.02" viewBox="0 0 88.031 81.02">
  <g id="Group_14" data-name="Group 14" transform="translate(-15.988 -8)">
    <ellipse id="Ellipse_18" data-name="Ellipse 18" cx="44" cy="12" rx="44" ry="12" transform="translate(16 8)" fill="#cb1e1e"/>
    <path id="Path_8" data-name="Path 8" d="M2725,483.427S2725.832,495,2769.437,495,2813,483.427,2813,483.427V503s1.753,8-43.563,8S2725,503,2725,503Z" transform="translate(-2709 -460)" fill="#cb1e1e"/>
    <path id="Path_9" data-name="Path 9" d="M2725,511s-1.349,8,44.477,8S2813,511,2813,511v16s-.872,7.521-43.523,8S2725,527,2725,527Z" transform="translate(-2709 -465)" fill="#cb1e1e"/>
    <path id="Path_10" data-name="Path 10" d="M2725,511s-1.349,8,44.477,8S2813,511,2813,511v16s-.872,7.521-43.523,8S2725,527,2725,527Z" transform="translate(-2709.008 -446)" fill="#cb1e1e"/>
  </g>
</svg>
