<svg xmlns="http://www.w3.org/2000/svg" width="83.439" height="83.439" viewBox="0 0 83.439 83.439">
  <g id="Group_39" data-name="Group 39" transform="translate(-18 -18)">
    <path id="Subtraction_9" data-name="Subtraction 9" d="M-2835.128-384.744a9.812,9.812,0,0,1-6.984-2.893A9.813,9.813,0,0,1-2845-394.62a9.809,9.809,0,0,1,2.888-6.983l17.969-17.97,3.1,3.1-19.521,19.521a1.09,1.09,0,0,0-.321.776,1.086,1.086,0,0,0,.321.776,1.087,1.087,0,0,0,.776.321,1.086,1.086,0,0,0,.776-.321l19.522-19.521,4.656,4.656-19.521,19.521a1.086,1.086,0,0,0-.321.776,1.082,1.082,0,0,0,.321.775,1.087,1.087,0,0,0,.777.322,1.094,1.094,0,0,0,.776-.321l19.521-19.521,3.1,3.1-17.969,17.969A9.813,9.813,0,0,1-2835.128-384.744Zm27.781-23.691h0l-3.1-3.1,11.01-11.01,3.1,3.1-11.01,11.009Zm-4.655-4.655h0l-4.656-4.656,11.01-11.01,4.656,4.656L-2812-413.09Zm-6.208-6.209h0l-3.1-3.1,11.01-11.01,3.1,3.1Zm24.7-2.974h0l-3.1-3.1,1.061-1.06a1.089,1.089,0,0,0,.32-.776,1.09,1.09,0,0,0-.322-.776,1.09,1.09,0,0,0-.776-.321,1.089,1.089,0,0,0-.775.321l-1.059,1.059-4.657-4.656,1.059-1.059a1.082,1.082,0,0,0,.321-.775,1.092,1.092,0,0,0-.322-.777,1.09,1.09,0,0,0-.776-.321,1.094,1.094,0,0,0-.776.321l-1.058,1.059-3.1-3.1,1.455-1.455a9.813,9.813,0,0,1,6.984-2.893,9.85,9.85,0,0,1,5.26,1.515l5.016-5.016a4.164,4.164,0,0,1,1.135-4.238l8.558-6.11A4.826,4.826,0,0,1-2777-455a2.2,2.2,0,0,1,1.623.629c1.34,1.339.123,3.594.07,3.69l-6.112,8.558a4.462,4.462,0,0,1-3.009,1.358,3.559,3.559,0,0,1-1.229-.222l-5.017,5.017a9.916,9.916,0,0,1,1.459,6.305,9.9,9.9,0,0,1-2.838,5.936l-1.455,1.455Z" transform="translate(2869.095 481.355)" fill="#cb1e1e"/>
    <path id="Union_15" data-name="Union 15" d="M-2838-378v-48q0-.455.044-.9a16.181,16.181,0,0,1-2.358-1.951A15.893,15.893,0,0,1-2845-440.163a15.912,15.912,0,0,1,2.8-9.046A15.99,15.99,0,0,1-2835-455v13.837a2,2,0,0,0,2,2h8a2,2,0,0,0,2-2V-455a15.989,15.989,0,0,1,7.2,5.791,15.906,15.906,0,0,1,2.8,9.046,15.893,15.893,0,0,1-4.686,11.314,16.179,16.179,0,0,1-2.358,1.951q.044.443.044.9v48a9.01,9.01,0,0,1-9,9A9.01,9.01,0,0,1-2838-378Zm5.25.751A3.754,3.754,0,0,0-2829-373.5a3.754,3.754,0,0,0,3.75-3.749A3.755,3.755,0,0,0-2829-381,3.754,3.754,0,0,0-2832.75-377.249Z" transform="translate(2351.452 -1649.357) rotate(-45)" fill="#cb1e1e"/>
  </g>
</svg>
