<svg xmlns="http://www.w3.org/2000/svg" width="64" height="96.001" viewBox="0 0 64 96.001">
  <g id="Group_36" data-name="Group 36" transform="translate(-28 -7.999)">
    <path id="Subtraction_6" data-name="Subtraction 6" d="M-2560-359h-12a2,2,0,0,1-2-2v-92a2,2,0,0,1,2-2h12a2,2,0,0,1,2,2v92A2,2,0,0,1-2560-359Zm-6-11a3,3,0,0,0-3,3,3,3,0,0,0,3,3,3,3,0,0,0,3-3A3,3,0,0,0-2566-370Zm-2-77a1,1,0,0,0-1,1v38a1,1,0,0,0,1,1h4a1,1,0,0,0,1-1v-38a1,1,0,0,0-1-1Z" transform="translate(2602 463)" fill="#cb1e1e"/>
    <path id="Subtraction_5" data-name="Subtraction 5" d="M-2560-359h-12a2,2,0,0,1-2-2v-92a2,2,0,0,1,2-2h12a2,2,0,0,1,2,2v92A2,2,0,0,1-2560-359Zm-6-11a3,3,0,0,0-3,3,3,3,0,0,0,3,3,3,3,0,0,0,3-3A3,3,0,0,0-2566-370Zm-2-77a1,1,0,0,0-1,1v38a1,1,0,0,0,1,1h4a1,1,0,0,0,1-1v-38a1,1,0,0,0-1-1Z" transform="translate(2626 463)" fill="#cb1e1e"/>
    <path id="Subtraction_4" data-name="Subtraction 4" d="M-2560-359h-12a2,2,0,0,1-2-2v-92a2,2,0,0,1,2-2h12a2,2,0,0,1,2,2v92A2,2,0,0,1-2560-359Zm-6-11a3,3,0,0,0-3,3,3,3,0,0,0,3,3,3,3,0,0,0,3-3A3,3,0,0,0-2566-370Zm-2-77a1,1,0,0,0-1,1v38a1,1,0,0,0,1,1h4a1,1,0,0,0,1-1v-38a1,1,0,0,0-1-1Z" transform="translate(2650 463)" fill="#cb1e1e"/>
  </g>
</svg>
