<svg xmlns="http://www.w3.org/2000/svg" width="77.54" height="77.539" viewBox="0 0 77.54 77.539">
  <path id="Union_19" data-name="Union 19" d="M-3050.532-377.218l-26.87-26.87-26.87,26.87a2,2,0,0,1-2.829,0l-8.485-8.485a2,2,0,0,1,0-2.829l26.87-26.87-26.87-26.87a2,2,0,0,1,0-2.829l8.485-8.485a2,2,0,0,1,2.829,0l26.87,26.87,26.87-26.87a2,2,0,0,1,2.829,0l8.485,8.485a2,2,0,0,1,0,2.829l-26.87,26.87,26.87,26.87a2,2,0,0,1,0,2.829l-8.485,8.485a2,2,0,0,1-1.414.585A2,2,0,0,1-3050.532-377.218Z" transform="translate(3116.172 454.172)" fill="#fff"/>
</svg>
