<svg id="Group_44" data-name="Group 44" xmlns="http://www.w3.org/2000/svg" width="127.301" height="127.398" viewBox="0 0 127.301 127.398">
  <g id="Group_43" data-name="Group 43" transform="translate(41 2)">
    <g id="Path_13" data-name="Path 13" transform="translate(-41 -2)" fill="#fff">
      <path d="M 60 118.5 C 52.10188293457031 118.5 44.44083404541016 116.953483581543 37.22961807250977 113.9033966064453 C 33.76358413696289 112.437385559082 30.42046737670898 110.6227798461914 27.29313278198242 108.5100021362305 C 24.19515037536621 106.4170303344727 21.2818660736084 104.0133666992188 18.63425064086914 101.3657531738281 C 15.98663330078125 98.71813201904297 13.58296680450439 95.80484771728516 11.48999977111816 92.70686340332031 C 9.377216339111328 89.57953643798828 7.56261682510376 86.23641967773438 6.09660005569458 82.7703857421875 C 3.04651665687561 75.55916595458984 1.5 67.89811706542969 1.5 60 C 1.5 52.10188293457031 3.04651665687561 44.44083404541016 6.09660005569458 37.22961807250977 C 7.56261682510376 33.76358413696289 9.377216339111328 30.42046737670898 11.48999977111816 27.29313278198242 C 13.58296680450439 24.19515037536621 15.98663330078125 21.2818660736084 18.63425064086914 18.63425064086914 C 21.2818660736084 15.98663330078125 24.19515037536621 13.58296680450439 27.29313278198242 11.48999977111816 C 30.42046737670898 9.377216339111328 33.76358413696289 7.56261682510376 37.22961807250977 6.09660005569458 C 44.44083404541016 3.04651665687561 52.10188293457031 1.5 60 1.5 C 67.89811706542969 1.5 75.55916595458984 3.04651665687561 82.7703857421875 6.09660005569458 C 86.23641967773438 7.56261682510376 89.57953643798828 9.377216339111328 92.70686340332031 11.48999977111816 C 95.80484771728516 13.58296680450439 98.71813201904297 15.98663330078125 101.3657531738281 18.63425064086914 C 104.0133666992188 21.2818660736084 106.4170303344727 24.19515037536621 108.5100021362305 27.29313278198242 C 110.6227798461914 30.42046737670898 112.437385559082 33.76358413696289 113.9033966064453 37.22961807250977 C 116.953483581543 44.44083404541016 118.5 52.10188293457031 118.5 60 C 118.5 67.89811706542969 116.953483581543 75.55916595458984 113.9033966064453 82.7703857421875 C 112.437385559082 86.23641967773438 110.6227798461914 89.57953643798828 108.5100021362305 92.70686340332031 C 106.4170303344727 95.80484771728516 104.0133666992188 98.71813201904297 101.3657531738281 101.3657531738281 C 98.71813201904297 104.0133666992188 95.80484771728516 106.4170303344727 92.70686340332031 108.5100021362305 C 89.57953643798828 110.6227798461914 86.23641967773438 112.437385559082 82.7703857421875 113.9033966064453 C 75.55916595458984 116.953483581543 67.89811706542969 118.5 60 118.5 Z" stroke="none"/>
      <path d="M 60 3 C 52.30372619628906 3 44.83925628662109 4.50665283203125 37.81394195556641 7.478111267089844 C 34.43711090087891 8.906402587890625 31.17990875244141 10.67436218261719 28.13285827636719 12.73292541503906 C 25.11396026611328 14.77245330810547 22.27501678466797 17.11479949951172 19.69490814208984 19.69490814208984 C 17.11479949951172 22.27501678466797 14.77245330810547 25.11396026611328 12.73292541503906 28.13285827636719 C 10.67436218261719 31.17990875244141 8.906402587890625 34.43711090087891 7.478111267089844 37.81394195556641 C 4.50665283203125 44.83925628662109 3 52.30372619628906 3 60 C 3 67.69627380371094 4.50665283203125 75.16074371337891 7.478111267089844 82.18605041503906 C 8.906402587890625 85.56288909912109 10.67436218261719 88.82009124755859 12.73292541503906 91.86714172363281 C 14.77245330810547 94.88603210449219 17.11479949951172 97.72498321533203 19.69490814208984 100.3050918579102 C 22.27501678466797 102.8852005004883 25.11396026611328 105.2275466918945 28.13285827636719 107.2670745849609 C 31.17990875244141 109.3256378173828 34.43711090087891 111.0935974121094 37.81394195556641 112.5218887329102 C 44.83925628662109 115.4933471679688 52.30372619628906 117 60 117 C 67.69627380371094 117 75.16074371337891 115.4933471679688 82.18605041503906 112.5218887329102 C 85.56288909912109 111.0935974121094 88.82009124755859 109.3256378173828 91.86714172363281 107.2670745849609 C 94.88603210449219 105.2275466918945 97.72498321533203 102.8852005004883 100.3050918579102 100.3050918579102 C 102.8852005004883 97.72498321533203 105.2275466918945 94.88603210449219 107.2670745849609 91.86714172363281 C 109.3256378173828 88.82009124755859 111.0935974121094 85.56288909912109 112.5218887329102 82.18605041503906 C 115.4933471679688 75.16074371337891 117 67.69627380371094 117 60 C 117 52.30372619628906 115.4933471679688 44.83925628662109 112.5218887329102 37.81394195556641 C 111.0935974121094 34.43711090087891 109.3256378173828 31.17990875244141 107.2670745849609 28.13285827636719 C 105.2275466918945 25.11396026611328 102.8852005004883 22.27501678466797 100.3050918579102 19.69490814208984 C 97.72498321533203 17.11479949951172 94.88603210449219 14.77245330810547 91.86714172363281 12.73292541503906 C 88.82009124755859 10.67436218261719 85.56288909912109 8.906402587890625 82.18605041503906 7.478111267089844 C 75.16074371337891 4.50665283203125 67.69627380371094 3 60 3 M 60 0 C 93.13709259033203 0 120 26.86290740966797 120 60 C 120 93.13709259033203 93.13709259033203 120 60 120 C 26.86290740966797 120 0 93.13709259033203 0 60 C 0 26.86290740966797 26.86290740966797 0 60 0 Z" stroke="none" fill="#707070"/>
    </g>
    <g id="Group_42" data-name="Group 42" transform="translate(-41 -2)">
      <g id="Group_41" data-name="Group 41">
        <g id="Group_40" data-name="Group 40" transform="translate(0 24)">
          <g id="Subtraction_11" data-name="Subtraction 11" fill="#fff">
            <path d="M 12.5134744644165 70.23850250244141 C 12.1494197845459 69.73259735107422 11.79329967498779 69.22096252441406 11.44927787780762 68.70944976806641 C 9.345328330993652 65.58271789550781 7.538127899169922 62.23958587646484 6.077661037445068 58.77267074584961 C 3.040161371231079 51.56047058105469 1.49999463558197 43.89860153198242 1.49999463558197 36.00000381469727 C 1.49999463558197 29.55683708190918 2.536561250686646 23.22360229492188 4.580911159515381 17.1762523651123 C 6.444258213043213 11.66825675964355 9.110831260681152 6.48760986328125 12.51389694213867 1.761387705802917 C 17.9060230255127 3.461776494979858 24.7553596496582 4.871543884277344 32.41469573974609 5.853719711303711 C 40.9249267578125 6.945703029632568 50.12197875976562 7.499386310577393 59.750244140625 7.499386310577393 C 69.37770843505859 7.499386310577393 78.57457733154297 6.945703029632568 87.08542633056641 5.853703022003174 C 94.74308776855469 4.871697902679443 101.5918426513672 3.462045431137085 106.985595703125 1.761331915855408 C 110.3894958496094 6.488547801971436 113.0560989379883 11.66934776306152 114.9184112548828 17.1763858795166 C 116.9630584716797 23.22135353088379 117.9997634887695 29.55450248718262 117.9997634887695 36.00000381469727 C 117.9997634887695 43.90052032470703 116.4594650268555 51.56232070922852 113.4216461181641 58.77258682250977 C 111.9616470336914 62.2396354675293 110.1544952392578 65.58264923095703 108.0502777099609 68.70902252197266 C 107.7066879272461 69.22030639648438 107.3507308959961 69.73182678222656 106.9863967895508 70.23796844482422 C 101.5894317626953 68.53695678710938 94.74010467529297 67.12715148925781 87.08583068847656 66.14555358886719 C 78.57059478759766 65.05348968505859 69.37358093261719 64.499755859375 59.750244140625 64.499755859375 C 50.12651062011719 64.499755859375 40.92939376831055 65.05348968505859 32.41440963745117 66.14555358886719 C 24.75825500488281 67.12740325927734 17.90889549255371 68.53736877441406 12.5134744644165 70.23850250244141 Z" stroke="none"/>
            <path d="M 13.11251831054688 68.48587799072266 C 18.41792488098145 66.90238952636719 24.96831130981445 65.58818054199219 32.22358703613281 64.65775299072266 C 40.80165863037109 63.55758666992188 50.06296920776367 62.99975204467773 59.75024032592773 62.99975204467773 C 69.43711090087891 62.99975204467773 78.69834899902344 63.55758666992188 87.27662658691406 64.65773010253906 C 94.53063201904297 65.58800506591797 101.0804977416992 66.90193939208984 106.3872985839844 68.48541259765625 C 106.5286636352539 68.281005859375 106.6682662963867 68.07626342773438 106.8058776855469 67.87147521972656 C 108.8560409545898 64.82542419433594 110.6167526245117 61.56833267211914 112.0393142700195 58.19018936157227 C 114.9990386962891 51.16527938842773 116.4997482299805 43.69942474365234 116.4997482299805 36.00000762939453 C 116.4997482299805 29.71824264526367 115.4896621704102 23.54678726196289 113.497444152832 17.65689659118652 C 111.7973937988281 12.62961196899414 109.4093475341797 7.881361484527588 106.3868103027344 3.513899564743042 C 101.0827941894531 5.0970139503479 94.53304290771484 6.410911560058594 87.27631378173828 7.341515064239502 C 78.70235443115234 8.441605567932129 69.44123840332031 8.999387741088867 59.75024032592773 8.999387741088867 C 50.05842208862305 8.999387741088867 40.79714965820312 8.441605567932129 32.22389602661133 7.341551303863525 C 24.965576171875 6.410772800445557 18.41541290283203 5.096835136413574 13.11271381378174 3.513984441757202 C 10.0910758972168 7.880478382110596 7.702730178833008 12.62904453277588 6.001914501190186 17.65662384033203 C 4.009986877441406 23.54887771606445 3.00000524520874 29.72049713134766 3.00000524520874 36.00000762939453 C 3.00000524520874 43.69760513305664 4.50060510635376 51.16358947753906 7.460023403167725 58.19034957885742 C 8.882914543151855 61.56813430786133 10.64373207092285 64.82542419433594 12.69391441345215 67.87227630615234 C 12.83154392242432 68.076904296875 12.97119903564453 68.28160858154297 13.11251831054688 68.48587799072266 M 11.94507789611816 71.99993133544922 L 11.94482326507568 71.9993896484375 C 11.34693241119385 71.199462890625 10.7612419128418 70.37420654296875 10.20458698272705 69.54656982421875 C 8.047369003295898 66.34064483642578 6.193605422973633 62.91175079345703 4.695314407348633 59.35498809814453 C 1.579586982727051 51.95709609985352 5.202414740779204e-06 44.09936904907227 5.202414740779204e-06 36.00000762939453 C 5.202414740779204e-06 29.39362335205078 1.062986969947815 22.89875221252441 3.159914255142212 16.69585990905762 C 5.187986850738525 10.7009334564209 8.143805503845215 5.083623886108398 11.94604110717773 5.846058229508344e-06 C 17.3938045501709 1.82153308391571 24.53735160827637 3.331296682357788 32.60547637939453 4.365914821624756 C 41.05249786376953 5.449769496917725 50.18505859375 5.999387741088867 59.75024032592773 5.999387741088867 C 69.31446075439453 5.999387741088867 78.447021484375 5.449769496917725 86.89453125 4.365914821624756 C 94.95948028564453 3.331660509109497 102.1032791137695 1.821969509124756 107.5534744262695 5.846058229508344e-06 C 111.35693359375 5.085078716278076 114.3124923706055 10.70220565795898 116.3393478393555 16.69585990905762 C 118.4365310668945 22.89611434936523 119.4997482299805 29.39093399047852 119.4997482299805 36.00000762939453 C 119.4997482299805 44.1014404296875 117.9199295043945 51.95922470092773 114.8039474487305 59.35498809814453 C 113.306640625 62.91064071655273 111.4531326293945 66.33960723876953 109.294677734375 69.54656982421875 C 108.7390213012695 70.37340545654297 108.1533126831055 71.19855499267578 107.554443359375 71.99920654296875 C 102.1013107299805 70.17718505859375 94.95777130126953 68.66735076904297 86.89502716064453 67.63336944580078 C 78.44287872314453 66.54938507080078 69.31005859375 65.99974822998047 59.75024032592773 65.99974822998047 C 50.18994903564453 65.99974822998047 41.05713272094727 66.54938507080078 32.605224609375 67.63336944580078 C 24.5419864654541 68.66742706298828 17.39795112609863 70.17731475830078 11.94580554962158 71.99974822998047 L 11.94507789611816 71.99993133544922 Z" stroke="none" fill="#707070"/>
          </g>
        </g>
        <g id="Ellipse_32" data-name="Ellipse 32" transform="translate(49.75)" fill="none" stroke="#707070" stroke-width="3">
          <ellipse cx="10" cy="60" rx="10" ry="60" stroke="none"/>
          <ellipse cx="10" cy="60" rx="8.5" ry="58.5" fill="none"/>
        </g>
        <g id="Ellipse_33" data-name="Ellipse 33" transform="translate(20)" fill="none" stroke="#707070" stroke-width="3">
          <ellipse cx="39.75" cy="60" rx="39.75" ry="60" stroke="none"/>
          <ellipse cx="39.75" cy="60" rx="38.25" ry="58.5" fill="none"/>
        </g>
      </g>
      <line id="Line_1" data-name="Line 1" x2="119.5" transform="translate(0.5 60.5)" fill="none" stroke="#707070" stroke-width="3"/>
    </g>
  </g>
  <g id="Path_16" data-name="Path 16" transform="translate(54.264 77.465) rotate(-45)" fill="#707070">
    <path d="M 21.26751518249512 62.15338516235352 L 19.26751518249512 62.15338516235352 L 13.76156425476074 62.15338516235352 L 11.76156425476074 62.15338516235352 L 11.76156425476074 60.15338516235352 L 11.76156425476074 34.03034591674805 L 4.281005658413051e-06 34.03034591674805 L -3.231115818023682 34.03034591674805 L -1.790075659751892 31.13836669921875 C -1.750335693359375 31.05861663818359 2.23039436340332 23.07198524475098 6.261324405670166 15.16806602478027 C 8.631814002990723 10.51992607116699 10.55674457550049 6.807216167449951 11.98263454437256 4.13304615020752 C 12.83677387237549 2.531156063079834 13.52257442474365 1.282416105270386 14.02097415924072 0.4215360581874847 C 14.80744457244873 -0.9369239211082458 15.28215408325195 -1.756883978843689 16.32050514221191 -1.961813926696777 C 16.45239448547363 -1.987583875656128 16.58359336853027 -2.000273942947388 16.71425437927246 -2.000273942947388 C 17.85117340087891 -2.000273942947388 18.44122505187988 -1.138413906097412 18.69318389892578 -0.7703839540481567 C 18.88224411010742 -0.4942339360713959 19.1131649017334 -0.1171939373016357 19.39914512634277 0.3822660744190216 C 19.88876342773438 1.237386107444763 20.55685424804688 2.483716011047363 21.38484382629395 4.086636066436768 C 22.76399421691895 6.756566047668457 24.6182746887207 10.47448635101318 26.89615440368652 15.13712596893311 C 30.76840400695801 23.06330680847168 34.57991409301758 31.09274673461914 34.61796569824219 31.17291641235352 L 35.97390365600586 34.03034591674805 L 32.81108474731445 34.03034591674805 L 21.26751518249512 34.03034591674805 L 21.26751518249512 60.15338516235352 L 21.26751518249512 62.15338516235352 Z" stroke="none"/>
    <path d="M 19.26750946044922 60.15338897705078 L 19.26750946044922 32.03033828735352 L 32.81108474731445 32.03033828735352 C 32.81108474731445 32.03033828735352 17.61150741577148 -0.0002664337225724012 16.71424293518066 -0.0002664337225724012 C 16.71199226379395 -0.0002664337225724012 16.7098274230957 -6.429891800507903e-05 16.70775604248047 0.0003401839348953217 C 15.87873268127441 0.1639519482851028 3.104535380771267e-06 32.03033828735352 3.104535380771267e-06 32.03033828735352 L 13.76156806945801 32.03033828735352 L 13.76156806945801 60.15338897705078 L 19.26750946044922 60.15338897705078 M 23.26750946044922 64.15338897705078 L 19.26750946044922 64.15338897705078 L 13.76156806945801 64.15338897705078 L 9.761568069458008 64.15338897705078 L 9.761568069458008 60.15338897705078 L 9.761568069458008 36.03033828735352 L 3.104535380771267e-06 36.03033828735352 L -6.462244033813477 36.03033828735352 L -3.58014988899231 30.24638748168945 C -3.5403733253479 30.16655158996582 0.4445325136184692 22.17156410217285 4.479638576507568 14.25942230224609 C 6.85563850402832 9.600504875183105 8.786250114440918 5.876893043518066 10.21782684326172 3.192046165466309 C 11.09506225585938 1.546846032142639 11.77290916442871 0.312822550535202 12.2901086807251 -0.5805304050445557 C 12.59855651855469 -1.113306879997253 12.84937953948975 -1.523377418518066 13.05688571929932 -1.834153890609741 C 13.37702655792236 -2.313636302947998 14.22746181488037 -3.587318658828735 15.93327331542969 -3.923965692520142 L 15.9411678314209 -3.925518751144409 L 15.94906234741211 -3.927047967910767 C 16.2005672454834 -3.97563624382019 16.45801544189453 -4.000271797180176 16.7142391204834 -4.000271797180176 C 17.39080238342285 -4.000271797180176 18.69129753112793 -3.818153858184814 19.79965019226074 -2.598495006561279 C 19.9815788269043 -2.398295164108276 20.15437889099121 -2.17641282081604 20.34346199035645 -1.900236248970032 C 20.56307411193848 -1.5794597864151 20.82190895080566 -1.157918691635132 21.13476753234863 -0.6115186214447021 C 21.64573287963867 0.2808813750743866 22.30877876281738 1.517422556877136 23.16177940368652 3.168751955032349 C 24.54774475097656 5.851869583129883 26.40877914428711 9.583233833312988 28.69316864013672 14.25921058654785 C 32.57035446166992 22.19549369812012 36.38675689697266 30.23521041870117 36.42485046386719 30.31549263000488 L 39.13673400878906 36.03033828735352 L 32.81108474731445 36.03033828735352 L 23.26750946044922 36.03033828735352 L 23.26750946044922 60.15338897705078 L 23.26750946044922 64.15338897705078 Z" stroke="none" fill="#fff"/>
  </g>
</svg>
